<?xml version="1.0" standalone="no"?>
<!DOCTYPE svg PUBLIC "-//W3C//DTD SVG 1.1//EN" "http://www.w3.org/Graphics/SVG/1.1/DTD/svg11.dtd" >
<svg xmlns="http://www.w3.org/2000/svg" xmlns:xlink="http://www.w3.org/1999/xlink" version="1.1" viewBox="-10 0 543 1024">
   <path fill="currentColor"
d="M454 234v88q-39 -20 -81.5 -30t-86.5 -10q-68 0 -103 21t-35 63q0 32 25 50t99 34l31 8q98 21 139.5 59q41.5 39 41.5 107q0 78 -62 123t-170 45q-45 0 -93.5 -8.5q-48.5 -7.5 -102.5 -25.5v-96q51 26 100.5 40t97.5 14q65 0 100 -22.5q35 -23.5 35 -63.5
q0 -38 -25.5 -57.5q-25.5 -20.5 -110.5 -38.5l-32 -7q-86 -18 -123.5 -55.5t-37.5 -101.5q0 -79 56 -122.5t158 -43.5q51 0 96.5 7.5t83.5 22.5z" />
</svg>
