<?xml version="1.0" standalone="no"?>
<!DOCTYPE svg PUBLIC "-//W3C//DTD SVG 1.1//EN" "http://www.w3.org/Graphics/SVG/1.1/DTD/svg11.dtd" >
<svg xmlns="http://www.w3.org/2000/svg" xmlns:xlink="http://www.w3.org/1999/xlink" version="1.1" viewBox="-10 0 522 1024">
   <path fill="currentColor"
d="M452 312q0 55 -26.5 93q-25.5 38 -71.5 58q57 21 88 66t31 109q0 95 -53.5 143t-166.5 48q-214 0 -214 -191q0 -66 32 -110q33 -45 87 -65q-44 -20 -71 -58t-27 -93q0 -83 50.5 -128.5t146.5 -45.5q93 0 144 45t51 129zM383 638q0 -80 -31.5 -116t-98.5 -36
q-66 0 -95 34.5t-29 117.5q0 84 29.5 117.5t94.5 33.5q66 0 98 -34.5t32 -116.5zM362 312q0 -69 -27 -101.5t-81 -32.5q-53 0 -78.5 31.5t-25.5 102.5q0 70 25 100t79 30q56 0 82 -31t26 -99z" />
</svg>
