<?xml version="1.0" standalone="no"?>
<!DOCTYPE svg PUBLIC "-//W3C//DTD SVG 1.1//EN" "http://www.w3.org/Graphics/SVG/1.1/DTD/svg11.dtd" >
<svg xmlns="http://www.w3.org/2000/svg" xmlns:xlink="http://www.w3.org/1999/xlink" version="1.1" viewBox="-10 0 758 1024">
   <path fill="currentColor"
d="M445 510c0 -28 17 -47 39 -47c14 0 27 12 31 23c-1 -5 -1 -25 -1 -33v-26h20v103v27h-18c-1 -5 -1 -7 -1 -7c0 -5 1 -10 1 -14c-3 10 -14 23 -31 23c-25 0 -40 -22 -40 -49zM350 92c0 -28 19 -47 39 -47c15 0 27 13 31 24h1c-1 -5 -1 -26 -1 -34v-26h19v104v26h-18v-7
c0 -5 0 -10 1 -14h-1c-3 10 -14 23 -31 23c-24 0 -40 -22 -40 -49zM123 73v-26h18v7c0 4 0 10 -1 15h1c3 -11 14 -24 31 -24c24 0 40 21 40 47c0 30 -20 49 -40 49c-15 0 -26 -11 -30 -24h-1c1 5 1 25 1 33v26h-19v-103zM370 768c-33 0 -47 -25 -47 -48c0 -24 17 -48 47 -48
c31 0 47 22 47 48c0 23 -15 48 -47 48zM589 141c-32 0 -47 -25 -47 -48c0 -24 17 -48 47 -48c31 0 47 22 47 48c0 23 -14 48 -47 48zM92 511c0 -24 17 -48 47 -48s46 22 46 48c0 23 -14 48 -47 48c-32 0 -46 -25 -46 -48zM446 674h18c0 2 1 12 1 16c0 3 -1 9 -1 9
c5 -10 18 -27 33 -27c14 0 23 12 24 28h1c3 -11 16 -28 31 -28c18 0 28 16 28 42v52h-20v-47c0 -25 -6 -32 -14 -32c-9 0 -19 15 -24 26v53h-19v-47c0 -25 -7 -32 -15 -32c-9 0 -19 15 -23 27v52h-20v-51v-41zM659 350c-14 0 -26 -9 -26 -26c0 -26 27 -34 44 -34h3h12
c0 -14 -8 -21 -22 -21c-10 0 -20 3 -26 6l-5 -12c8 -4 23 -9 35 -9c25 0 38 12 38 43c0 11 -1 27 -1 33c0 8 1 14 2 18h-18c-1 -3 -3 -9 -3 -14c0 -1 1 -3 1 -5c-4 14 -19 21 -34 21zM237 94c0 -27 19 -49 46 -49c28 0 42 24 42 44v7h-69c1 18 13 33 33 33c11 0 19 -4 25 -8
l7 11c-6 3 -21 9 -36 9c-22 0 -48 -12 -48 -47zM118 303c0 -27 18 -49 45 -49c29 0 43 24 43 44v7h-69c0 18 13 33 33 33c10 0 20 -4 25 -8l6 11c-6 3 -21 9 -35 9c-22 0 -48 -12 -48 -47zM437 350c-22 0 -47 -12 -47 -47c0 -27 18 -49 45 -49c28 0 43 24 43 44v7h-68
c0 18 10 33 32 33c10 0 19 -4 25 -8l6 11c-6 3 -21 9 -36 9zM677 557l-39 -92h21c6 15 11 27 11 27c6 15 16 45 16 45c5 -15 10 -32 15 -47c3 -9 10 -25 10 -25h20c-23 59 -36 92 -36 92c-1 1 -1 3 -2 4c-6 15 -16 34 -35 34c-2 0 -4 0 -5 -1c-7 -1 -11 -2 -11 -2l6 -14
c3 1 7 2 7 2c13 0 18 -13 22 -23zM215 465h19v53c0 19 8 26 17 26c13 0 24 -14 28 -31v-48h19v58v34h-17c-1 -13 -1 -19 -1 -19c0 -3 1 -11 1 -11c-5 14 -18 32 -35 32c-18 0 -31 -12 -31 -36v-58zM333 465h17c0 2 1 12 1 16c0 2 -1 9 -1 9c6 -10 20 -27 35 -27
c20 0 31 16 31 47v47h-20v-46c0 -25 -7 -33 -16 -33c-10 0 -23 15 -28 27v52h-19v-51v-41zM305 348h-21c22 -31 34 -48 34 -48c-12 -16 -31 -44 -31 -44h22l2 4c6 9 17 26 17 26c11 -16 16 -24 16 -24l4 -6h21c-19 28 -31 44 -31 44c13 17 36 48 36 48h-22
c-4 -6 -6 -8 -6 -8c-7 -8 -17 -27 -17 -27c-12 17 -18 27 -18 27c-2 3 -6 8 -6 8zM112 511c0 24 12 35 26 35c15 0 28 -13 28 -35c0 -24 -14 -35 -27 -35c-14 0 -27 12 -27 35zM343 720c0 24 13 35 27 35c15 0 26 -13 26 -35c0 -24 -12 -35 -26 -35c-13 0 -27 12 -27 35z
M589 58c-13 0 -27 12 -27 35c0 24 13 35 27 35c15 0 26 -13 26 -35c0 -24 -12 -35 -26 -35zM218 720c0 -26 17 -48 46 -48c18 0 31 9 31 9l-8 11c-9 -5 -20 -5 -20 -5c-14 0 -29 12 -29 34c0 18 12 32 31 32c13 0 25 -5 25 -5l5 12c-14 8 -33 8 -33 8c-29 0 -48 -19 -48 -48
zM25 465h11c0 -18 -1 -40 24 -40c7 0 17 2 22 4l-4 13c-3 -1 -7 -2 -11 -2c-8 0 -12 7 -12 17v8h20v11h-20v81h-19v-81h-11v-11zM33 268v-12h16v-19s2 -1 5 -1c5 1 15 2 15 -6v26h24v12h-24v49c0 13 4 18 11 18c4 0 10 -1 13 -2l4 13c-5 2 -15 4 -23 4
c-16 0 -25 -12 -25 -34v-48h-16zM490 478c-15 0 -25 15 -25 33s9 34 24 34c17 0 25 -19 25 -30v-6c0 -12 -8 -31 -24 -31zM371 93c0 18 9 34 24 34c16 0 25 -19 25 -30v-6c0 -12 -9 -31 -25 -31c-15 0 -24 14 -24 33zM142 89v5c0 14 10 32 25 32c16 0 24 -16 24 -34
c0 -17 -8 -32 -23 -32c-17 0 -26 19 -26 29zM568 506v-41h18v15c0 3 -1 13 -1 13c6 -12 17 -30 33 -30c2 0 5 1 5 1l-2 16c-17 0 -27 11 -33 27v50h-20v-51zM473 88v-41h17c1 5 2 9 2 15c0 3 -2 13 -2 13c5 -12 18 -29 33 -30c2 0 4 1 4 1l-2 16c-17 0 -26 11 -32 27v50h-20
v-51zM566 297c0 -23 -1 -32 -1 -41h19v15c0 3 -1 13 -1 13c5 -12 17 -29 33 -30c2 0 4 1 4 1l-3 16c-17 0 -26 11 -32 27v50h-19v-51zM238 256h19v92h-19v-92zM510 348v-92h19v92h-19zM651 322c0 7 5 14 16 14c13 0 24 -13 25 -24v-12c-1 0 -3 0 -5 -1c-14 0 -36 6 -36 23z
M257 86h50c-1 -14 -8 -28 -23 -28c-18 0 -27 18 -27 28zM436 267c-18 0 -26 18 -26 28h50c0 -14 -9 -28 -24 -28zM137 295h51c-1 -14 -9 -28 -24 -28c-17 0 -26 18 -27 28zM181 766c-6 0 -11 -5 -11 -11s5 -12 11 -12s12 6 12 12s-6 11 -12 11zM519 243c-5 0 -11 -5 -11 -10
c0 -6 6 -9 11 -9c6 0 12 4 12 9s-5 10 -12 10zM236 233c0 -6 6 -9 12 -9c5 0 12 4 12 9s-6 10 -12 10c-5 0 -12 -5 -12 -10z" />
</svg>
